<?xml version="1.0" encoding="utf-8"?>
<!-- Generator: Adobe Illustrator 25.2.0, SVG Export Plug-In . SVG Version: 6.00 Build 0)  -->
<svg version="1.1" xmlns="http://www.w3.org/2000/svg" xmlns:xlink="http://www.w3.org/1999/xlink" x="0px" y="0px"
	 viewBox="0 0 1693.5 345.8" style="enable-background:new 0 0 1693.5 345.8;" xml:space="preserve">
<style type="text/css">
	.st0{fill:none;stroke:#000000;stroke-width:8.9469;stroke-linecap:round;stroke-linejoin:round;stroke-miterlimit:10;}
	.st1{stroke:#000000;stroke-width:11.3224;stroke-linecap:round;stroke-linejoin:round;stroke-miterlimit:10;}
	.st2{fill:none;stroke:#000000;stroke-width:9.9425;stroke-linecap:round;stroke-linejoin:round;stroke-miterlimit:10;}
</style>
<g id="Warstwa_2">
	<g>
		<path class="st0" d="M177.3,43.9C101.7-36.3,41.6,27.3,31.6,63.4c-13,46.8,12,79,42.2,87.2c23.7,6.4,61.4-8.2,56.1-17.6
			c-5.3-9.4-63.4,7-89.8,42.9C20.8,201.9-11,252,15.5,301c7.9,14.5,55.4,59.2,118.1-11.7c23.1-26.1,56.3-95,61-99.4
			c35.3-33.1-15.7,138.7,3.1,138.3C213,328,271.9,209,293.9,202.7c41-11.7-4.6,134.4,13.6,125.6c19.1-9.3,54.8-98.1,75.5-105.6
			c39.8-14.6-11.2,82.2,6.2,100.5c13.7,14.4,47.1-5.4,70-32c30.4-35.3,72.2-85.3,55.1-74.2c-15.7,10.2-33.6,58.6-27.8,80.4
			c19.5,73.4,92.7,2.3,119-75.2c18.4-54.2,81.3-148.8,71-157.1c-4.9-3.9-43,48.8-56.1,115.5c-9.3,47.5-23.7,146.6,3.3,148
			c36,1.8,123.5-132.2,99-119.4c-2.6,1.3-30.5,71.6-31,100.9c-0.6,31.1,29.7,19.2,42.1,1.7c16.7-23.5,70.8-95.5,56.6-80.1
			c-11,12-23.1,41.4-20.5,66.8c3.1,30.8,19.7,30.8,35.7,30.8c26.9,0,49.6-17.8,53.5-42.4c9.6-60.3-28.9-77.1-24.4-57.4
			c3.3,14.4,10,99.7,80.7,99.7"/>
		<path class="st1" d="M531.7,162.4L531.7,162.4c0,2.7,10.5-1.2,7.1-2.3l-1.4-0.5C534.7,158.8,531.7,160.2,531.7,162.4z"/>
		<path class="st1" d="M742.7,162.4L742.7,162.4c0,2.7,10.5-1.2,7.1-2.3l-1.4-0.5C745.7,158.8,742.7,160.2,742.7,162.4z"/>
	</g>
</g>
<g id="Warstwa_3">
	<g>
		<path class="st2" d="M1024.8,264.8c0,0-1-182.4-0.4-200c1.5-43.9,52.3-64.1,87.7-38.6c37.3,26.8-15.1,102.6-26.1,88.4
			c-6.2-8.1,30.8-46.9,76.5-37.2c27,5.7,46.9,36.6,43.2,78.3c-5.6,63.9-48.8,173.6-140.1,173.6c-31.7,0-68.1-29.1-68.1-60.7"/>
		<path class="st2" d="M1198.7,233.5c-14.4,17.8-20.8,98.3,30.7,95.9c52.8-2.4,47.2-89,38-95.9"/>
		<path class="st2" d="M1275.9,255.6c9.1-14.2,40.2-24.3,49-21.7c9.4,2.8,12.2,99.9-11.7,99.9c-12.6,0,15.8-78.2,46.2-88.1
			c27.2-8.9,67.7-12.2,68.1-5.9c0.6,10.2-62.6,85.8-47.2,89.6c70.8,17.4,114-77.5,104.5-73.8c-4.9,1.9-23.3,25.8-9.5,53.1
			c31,61,100.7,20.6,99.9-24.7c-0.4-25.7-25.4-63.5-25.4-41.9c0,12.8,55.9,98.2,138.8,87.3"/>
	</g>
</g>
</svg>
